<svg width="100" height="75" viewBox="0 0 100 75" fill="none" xmlns="http://www.w3.org/2000/svg">
<path fill-rule="evenodd" clip-rule="evenodd" d="M75 21.5625L94.6875 10.4688C95.0068 10.26 95.3569 10.1067 95.7236 10.0137C95.9346 9.95996 96.1514 9.92627 96.3706 9.91357C96.9707 9.87866 97.5693 10.002 98.1069 10.2708C98.6445 10.5393 99.1021 10.9443 99.4341 11.4453C99.646 11.7649 99.8022 12.1162 99.8975 12.4844C99.9517 12.6934 99.9858 12.908 100 13.125V61.7812C99.9668 62.3838 99.7754 62.9668 99.4453 63.4717C99.1152 63.9768 98.6577 64.386 98.1196 64.6584C97.5811 64.9307 96.9805 65.0566 96.3779 65.0234C95.7759 64.99 95.1924 64.7988 94.6875 64.4688L75 53.375V68.75C75 70.4077 74.3413 71.9973 73.1694 73.1694C71.9976 74.3416 70.4077 75 68.75 75H12.5C9.18457 75 6.00537 73.6831 3.66113 71.3389C1.31689 68.9946 0 65.8152 0 62.5V12.5C0 9.18481 1.31689 6.00537 3.66113 3.66113C6.00537 1.31689 9.18457 0 12.5 0H68.75C70.4077 0 71.9976 0.658447 73.1694 1.83057C74.3413 3.00269 75 4.59229 75 6.25V21.5625ZM30.3052 56.4836L39.9995 50.699L49.6938 56.4836C50.1226 56.7534 50.5703 56.8691 51.0371 56.8306C51.5044 56.792 51.9131 56.6377 52.2637 56.3679C52.6143 56.0979 52.8867 55.7607 53.0815 55.3567C53.2759 54.9509 53.3149 54.4976 53.1982 53.9961L50.6284 43.0635L59.2134 35.7173C59.6025 35.3701 59.8467 34.9744 59.9443 34.5303C60.041 34.0874 60.0117 33.6541 59.856 33.23C59.7002 32.8057 59.4663 32.4585 59.1548 32.1887C58.8438 31.9187 58.415 31.7451 57.8701 31.668L46.5405 30.6846L42.1602 20.3882C41.9658 19.9255 41.6646 19.5784 41.2563 19.3472C40.8467 19.1157 40.4277 19 39.9995 19C39.5713 19 39.1533 19.1157 38.7451 19.3472C38.5186 19.4749 38.3252 19.6382 38.1646 19.8369C38.0342 19.9976 37.9258 20.1814 37.8389 20.3882L33.4585 30.6846L22.1289 31.668C21.584 31.7451 21.1558 31.9187 20.8442 32.1887C20.5327 32.4585 20.2988 32.8057 20.1436 33.23C19.9878 33.6541 19.959 34.0874 20.0566 34.5303C20.1533 34.9744 20.3965 35.3701 20.7856 35.7173L29.3706 43.0635L26.8008 53.9961C26.6841 54.4976 26.7231 54.9509 26.918 55.3567C27.1123 55.7607 27.3848 56.0979 27.7354 56.3679C28.0859 56.6377 28.4946 56.792 28.9619 56.8306C29.4292 56.8691 29.877 56.7534 30.3052 56.4836Z" fill="white"/>
</svg>
